<svg width="395" height="393" viewBox="0 0 395 393" fill="none" xmlns="http://www.w3.org/2000/svg">
<path d="M211 393C205.312 393 199.624 393 193.342 392.637C181.581 389.979 173.252 384.182 170.403 372.685C168.729 365.933 167.91 358.946 167.046 352.021C165.853 342.452 165.091 332.83 163.944 323.255C162.395 310.309 160.97 297.335 158.873 284.474C157.741 277.534 156.536 270.135 153.225 264.12C146.566 252.018 121.544 243.428 108.115 247.371C101.438 249.332 96.3993 253.049 95.0531 260.248C92.9094 271.712 90.6288 283.171 89.0933 294.723C87.0497 310.098 85.7804 325.574 83.9515 340.98C82.9741 349.212 74.4843 358.174 66.3229 359.977C56.4893 362.148 46.5372 362.958 36.6107 360.931C27.2045 359.01 19.2509 354.904 17.6578 344.17C15.9131 332.414 14.3505 320.624 13.0536 308.811C11.802 297.409 11.1178 285.947 9.94926 274.535C8.78526 263.168 7.18457 251.845 6.04127 240.476C4.86032 228.732 4.12087 216.944 2.88823 205.207C2.66282 203.06 0.999547 201.065 2.02656e-06 199C2.65579e-08 198.556 5.96046e-08 198.111 0.412574 197.324C0.550099 192.988 0.275049 188.994 0 185C0 180.311 -5.96046e-08 175.621 0.338862 170.382C4.74663 163.674 9.05135 157.762 16.4551 155.218C21.625 153.442 26.8158 151.727 31.9916 149.967C45.8519 145.256 59.7008 140.511 73.5697 135.826C91.2414 129.855 108.978 124.071 126.59 117.932C136.9 114.338 147.169 110.546 157.184 106.215C165.197 102.749 171.4 96.9766 172.902 87.8414C174.249 79.6535 175.27 71.3885 175.933 63.1173C176.866 51.472 177.222 39.7814 178.059 28.127C178.395 23.4399 179.162 18.7602 180.067 14.1427C181.67 5.96906 187.448 1.99885 195 0C204.021 0 213.042 0 222.697 0.393085C232.66 1.52331 241.981 2.37592 251.319 2.96906C263.65 3.75242 275.996 4.31894 288.334 5.00369C300.008 5.65157 311.676 6.42001 323.354 6.9762C339.187 7.73026 355.035 8.17471 370.859 9.07041C378.151 9.48313 385.554 10.2216 390.87 16.3648C392.224 17.9296 393.622 19.456 395 21C395 124.354 395 227.708 394.658 331.619C392.975 334.187 391.636 336.201 390.292 338.211C386.4 344.032 379.865 344.289 374.122 344.75C363.38 345.613 353.146 343.603 344.511 336.108C337.234 329.791 334.335 321.043 331.153 312.654C324.022 293.858 317.931 274.666 310.827 255.858C307.775 247.776 303.212 239.552 293.547 238.527C287.335 237.868 280.465 239.087 274.512 241.21C261.522 245.841 251.993 255.015 249.228 268.716C245.951 284.955 244.161 301.507 242.052 317.964C239.833 335.285 238.281 352.695 235.862 369.985C234.866 377.098 232.014 383.922 224.968 387.443C220.501 389.674 215.669 391.173 211 393Z" fill="#F7E6DB"/>
</svg>
